<svg width="24" height="25" viewBox="0 0 24 25" fill="none" xmlns="http://www.w3.org/2000/svg">
<path d="M14.8133 23.9071H17.8C18.5467 23.9071 19.1067 23.349 19.1067 22.6048V17.3955H21.16C22.1867 17.3955 22.9333 16.3722 22.56 15.442L19.76 8.09313C19.3867 7.16289 18.5467 6.60475 17.52 6.60475H14.16H9.12H4.17333C2.4 6.60475 1 8.0001 1 9.76755V15.3489C1 15.9071 1.46667 16.3722 2.02667 16.3722H3.24V22.6048C3.24 23.349 3.8 23.9071 4.54667 23.9071H8.18667H14.8133Z" fill="#B3E9DD"/>
<path d="M8.15363 2.41861C8.15363 3.47666 7.2926 4.33721 6.22696 4.33721C5.16132 4.33721 4.30029 3.47666 4.30029 2.41861C4.30029 1.36056 5.16132 0.5 6.22696 0.5C7.2926 0.5 8.15363 1.36056 8.15363 2.41861Z" fill="#2D3D54" stroke="#2D3D54"/>
<path d="M17.2063 3.06976C17.2063 3.76818 16.6378 4.33721 15.933 4.33721C15.2282 4.33721 14.6597 3.76818 14.6597 3.06976C14.6597 2.37134 15.2282 1.80232 15.933 1.80232C16.6378 1.80232 17.2063 2.37134 17.2063 3.06976Z" fill="#2D3D54" stroke="#2D3D54"/>
<mask id="mask0_1860_1194" style="mask-type:alpha" maskUnits="userSpaceOnUse" x="1" y="6" width="22" height="18">
<path d="M14.8133 23.9071H17.8C18.5467 23.9071 19.1067 23.349 19.1067 22.6048V17.3955H21.16C22.1867 17.3955 22.9333 16.3722 22.56 15.442L19.76 8.09313C19.3867 7.16289 18.5467 6.60475 17.52 6.60475H14.16H9.12H4.17333C2.4 6.60475 1 8.0001 1 9.76755V15.3489C1 15.9071 1.46667 16.3722 2.02667 16.3722H3.24V22.6048C3.24 23.349 3.8 23.9071 4.54667 23.9071H8.18667H14.8133Z" fill="#F9C6B1"/>
</mask>
<g mask="url(#mask0_1860_1194)">
<rect y="6" width="12" height="19" fill="#F9C6B1"/>
</g>
<path d="M9.12 6.60475H4.17333C2.4 6.60475 1 8.0001 1 9.76755V15.3489C1 15.9071 1.46667 16.3722 2.02667 16.3722H3.24V22.6048C3.24 23.349 3.8 23.9071 4.54667 23.9071H8.18667" stroke="#2D3D54" stroke-width="2" stroke-miterlimit="10" stroke-linecap="square" stroke-linejoin="round"/>
<path d="M14.1597 6.60475H17.5197C18.453 6.60475 19.3863 7.16289 19.7597 8.09313L22.5597 15.442C22.933 16.3722 22.1864 17.3955 21.1597 17.3955H19.1063V22.6048C19.1063 23.349 18.5463 23.9071 17.7997 23.9071H14.813" stroke="#2D3D54" stroke-width="2" stroke-miterlimit="10" stroke-linecap="square" stroke-linejoin="round"/>
<path d="M12.824 11.3485C12.824 12.0469 12.2555 12.6159 11.5507 12.6159C10.8459 12.6159 10.2773 12.0469 10.2773 11.3485C10.2773 10.6501 10.8459 10.0811 11.5507 10.0811C12.2555 10.0811 12.824 10.6501 12.824 11.3485Z" fill="#2D3D54" stroke="#2D3D54"/>
<path d="M13.135 23.9065V21.1158H14.6283V16.7437C14.6283 15.8135 13.8817 14.9763 12.855 14.9763H10.1483C9.215 14.9763 8.375 15.7205 8.375 16.7437V21.2089H9.86833V23.9996" fill="white"/>
<path d="M13.135 23.9065V21.1158H14.6283V16.7437C14.6283 15.8135 13.8817 14.9763 12.855 14.9763H10.1483C9.215 14.9763 8.375 15.7205 8.375 16.7437V21.2089H9.86833V23.9996" stroke="#2D3D54" stroke-width="2" stroke-miterlimit="10" stroke-linecap="square" stroke-linejoin="round"/>
</svg>
