<svg width="24" height="24" viewBox="0 0 24 24" fill="none" xmlns="http://www.w3.org/2000/svg">
<path d="M15 15H9C5.6865 15 3 17.6865 3 21V22C3 22 6.125 23 12 23C17.875 23 21 22 21 22V21C21 17.6865 18.3135 15 15 15Z" fill="#B3E9DD" stroke="#2D3D54" stroke-width="2" stroke-miterlimit="10" stroke-linecap="round" stroke-linejoin="round"/>
<path d="M7 6C7 3.2385 9.2385 1 12 1C14.7615 1 17 3.2385 17 6C17 8.7615 14.7615 12 12 12C9.2385 12 7 8.7615 7 6Z" fill="#F9C6B1" stroke="#2D3D54" stroke-width="2" stroke-miterlimit="10" stroke-linecap="round" stroke-linejoin="round"/>
<path d="M12.0001 10.0879C13.4203 10.0879 14.5716 9.0252 14.5716 7.71429H9.42871C9.42871 9.0252 10.58 10.0879 12.0001 10.0879Z" fill="#2D3D54"/>
</svg>
