<svg width="29" height="25" viewBox="0 0 29 25" fill="none" xmlns="http://www.w3.org/2000/svg">
<path d="M6.14546 2.33708C6.14546 3.35299 5.32458 4.17416 4.31492 4.17416C3.30526 4.17416 2.48438 3.35299 2.48438 2.33708C2.48438 1.32117 3.30526 0.5 4.31492 0.5C5.32458 0.5 6.14546 1.32117 6.14546 2.33708Z" fill="#2D3D54" stroke="#2D3D54"/>
<path d="M4.04763 6.38191C2.34454 6.38191 1 7.73023 1 9.43809V14.8313C1 15.3707 1.44818 15.8201 1.986 15.8201H3.15127V21.8426C3.15127 22.5617 3.68909 23.101 4.40618 23.101" stroke="#2D3D54" stroke-width="2" stroke-miterlimit="10" stroke-linecap="square" stroke-linejoin="round"/>
<g clip-path="url(#clip0_1860_1169)">
<path d="M17.65 23.1012H20.5183C21.2354 23.1012 21.7732 22.5619 21.7732 21.8428V16.8091H23.7452C24.7312 16.8091 25.4483 15.8203 25.0898 14.9214L22.4007 7.8203C22.0421 6.92142 21.2354 6.3821 20.2494 6.3821H17.0225H14.1821H9.43142C7.72833 6.3821 6.38379 7.73041 6.38379 9.43828V14.8315C6.38379 15.3709 6.83197 15.8203 7.36979 15.8203H8.53506V21.8428C8.53506 22.5619 9.07288 23.1012 9.78997 23.1012H13.2858H17.65Z" fill="#B3E9DD"/>
<path d="M13.2334 2.33708C13.2334 3.35299 12.4125 4.17416 11.4028 4.17416C10.3931 4.17416 9.57227 3.35299 9.57227 2.33708C9.57227 1.32117 10.3931 0.5 11.4028 0.5C12.4125 0.5 13.2334 1.32117 13.2334 2.33708Z" fill="#2D3D54" stroke="#2D3D54"/>
<path d="M19.7427 2.27715C19.7427 3.25997 18.9486 4.05431 17.972 4.05431C16.9953 4.05431 16.2012 3.25997 16.2012 2.27715C16.2012 1.29434 16.9953 0.5 17.972 0.5C18.9486 0.5 19.7427 1.29434 19.7427 2.27715Z" fill="#2D3D54" stroke="#2D3D54"/>
<mask id="mask0_1860_1169" style="mask-type:alpha" maskUnits="userSpaceOnUse" x="6" y="6" width="20" height="18">
<path d="M17.65 23.1012H20.5183C21.2354 23.1012 21.7732 22.5619 21.7732 21.8428V16.8091H23.7452C24.7312 16.8091 25.4483 15.8203 25.0898 14.9214L22.4007 7.8203C22.0421 6.92142 21.2354 6.3821 20.2494 6.3821H17.0225H14.1821H9.43142C7.72833 6.3821 6.38379 7.73041 6.38379 9.43828V14.8315C6.38379 15.3709 6.83197 15.8203 7.36979 15.8203H8.53506V21.8428C8.53506 22.5619 9.07288 23.1012 9.78997 23.1012H13.2858H17.65Z" fill="#F9C6B1"/>
</mask>
<g mask="url(#mask0_1860_1169)">
<rect x="5.99951" y="6" width="9" height="18" fill="#F9C6B1"/>
</g>
<path d="M11.4995 6.3821L9.43142 6.3821C7.72833 6.3821 6.38379 7.73041 6.38379 9.43828V14.8315C6.38379 15.3709 6.83197 15.8203 7.36979 15.8203H8.53506V21.8428C8.53506 22.5619 9.07288 23.1012 9.78997 23.1012H11.4995" stroke="#2D3D54" stroke-width="2" stroke-miterlimit="10" stroke-linecap="square" stroke-linejoin="round"/>
<path d="M11.4995 6.3821L13.1345 6.3821C14.8376 6.3821 16.1821 7.73041 16.1821 9.43828V14.8315C16.1821 15.3709 15.7339 15.8203 15.1961 15.8203H14.0309V21.8428C14.0309 22.5619 13.493 23.1012 12.776 23.1012H11.4995" stroke="#2D3D54" stroke-width="2" stroke-miterlimit="10" stroke-linecap="square" stroke-linejoin="round"/>
<path d="M18.0224 6.3821H20.2494C21.1457 6.3821 22.0421 6.92142 22.4006 7.8203L25.0897 14.9214C25.4483 15.8203 24.7312 16.8091 23.7452 16.8091H21.7732V21.8428C21.7732 22.5619 21.2354 23.1012 20.5183 23.1012H17.6499" stroke="#2D3D54" stroke-width="2" stroke-miterlimit="10" stroke-linecap="square" stroke-linejoin="round"/>
</g>
<defs>
<clipPath id="clip0_1860_1169">
<rect width="22.5883" height="24" fill="white" transform="translate(5.48779)"/>
</clipPath>
</defs>
</svg>
