<svg width="24" height="24" viewBox="0 0 24 24" fill="none" xmlns="http://www.w3.org/2000/svg">
<g clip-path="url(#clip0_1860_1149)">
<path d="M13 21.247C13 20.433 12.5115 19.697 11.756 19.3945C10.716 18.9785 9.0705 18.5 7 18.5C4.9295 18.5 3.284 18.9785 2.244 19.3945C1.4885 19.697 1 20.4335 1 21.247V23H13V21.247Z" fill="#B3E9DD" stroke="#203248" stroke-width="2" stroke-miterlimit="10" stroke-linecap="round" stroke-linejoin="round"/>
<path d="M13 13.984C13.9525 13.699 15.1135 13.5 16.5 13.5C18.993 13.5 20.629 14.143 21.6365 14.7765C22.496 15.3175 23 16.2765 23 17.292V23H16.5" fill="#F9C6B1"/>
<path d="M13 13.984C13.9525 13.699 15.1135 13.5 16.5 13.5C18.993 13.5 20.629 14.143 21.6365 14.7765C22.496 15.3175 23 16.2765 23 17.292V23H16.5" stroke="#203248" stroke-width="2" stroke-miterlimit="10" stroke-linecap="round" stroke-linejoin="round"/>
<path d="M3 11.5C3 9.291 4.791 7.5 7 7.5C9.209 7.5 11 9.291 11 11.5C11 13.709 9.209 16 7 16C4.791 16 3 13.709 3 11.5Z" fill="#FFDE9E" stroke="#203248" stroke-width="2" stroke-miterlimit="10" stroke-linecap="round" stroke-linejoin="round"/>
<path d="M6.99993 14.5714C7.9467 14.5714 8.71422 13.8039 8.71422 12.8571H5.28564C5.28564 13.8039 6.05316 14.5714 6.99993 14.5714Z" fill="#2D3D54"/>
<path d="M12 5.5C12 3.0145 14.0145 1 16.5 1C18.9855 1 21 3.0145 21 5.5C21 7.9855 18.9855 11 16.5 11C14.0145 11 12 7.9855 12 5.5Z" fill="#FFDE9E" stroke="#203248" stroke-width="2" stroke-miterlimit="10" stroke-linecap="round" stroke-linejoin="round"/>
<path d="M16.4998 9.42857C17.6833 9.42857 18.6426 8.2773 18.6426 6.85714H14.3569C14.3569 8.2773 15.3163 9.42857 16.4998 9.42857Z" fill="#2D3D54"/>
</g>
<defs>
<clipPath id="clip0_1860_1149">
<rect width="24" height="24" fill="white"/>
</clipPath>
</defs>
</svg>
